{
	"asset":{
		"version":"2.0",
		"generator":"Created using the official Cinema 4D glTF Exporter 1.000x284978"
	},
	"scenes":[{
		"nodes":[0]
	}],
	"nodes":[{
		"name":"Extrude",
		"mesh":0
	}],
	"meshes":[{
		"name":"Extrude",
		"primitives":[{
			"attributes":{
				"POSITION":1,
				"NORMAL":2,
				"TEXCOORD_0":3
			},
			"indices":0,
			"material":0
		}]
	}],
	"accessors":[{
		"max":[3982],
		"bufferView":0,
		"type":"SCALAR",
		"componentType":5123,
		"count":19986,
		"byteOffset":0,
		"min":[0]
	},
	{
		"max":[178.0111846923828,
		260.7911071777344,
		4.272511200493064e-30],
		"bufferView":1,
		"type":"VEC3",
		"componentType":5126,
		"count":3983,
		"byteOffset":0,
		"min":[-177.6099395751953,
		-245.25003051757813,
		-40.99187469482422]
	},
	{
		"max":[0.9999516010284424,
		0.9992245435714722,
		1.0],
		"bufferView":1,
		"type":"VEC3",
		"componentType":5126,
		"count":3983,
		"byteOffset":12,
		"min":[-0.9999909400939941,
		-0.999997615814209,
		-0.9992976188659668]
	},
	{
		"max":[1.0,
		1.0],
		"bufferView":1,
		"type":"VEC2",
		"componentType":5126,
		"count":3983,
		"byteOffset":24,
		"min":[0.0,
		0.0]
	}],
	"bufferViews":[{
		"buffer":0,
		"byteOffset":0,
		"target":34963,
		"byteLength":39972
	},
	{
		"buffer":0,
		"byteOffset":39972,
		"target":34962,
		"byteLength":127456,
		"byteStride":32
	}],
	"buffers":[{
		"uri":"data:application/octet-stream;base64,",
		"byteLength":167428
	}],
	"materials":[{
		"pbrMetallicRoughness":{
			"baseColorFactor":[1.0,
			0.9797,
			0.9797,
			1.0],
			"metallicFactor":0.0,
			"roughnessFactor":1.0
		},
		"emissiveFactor":[0.0,
		0.0,
		0.0],
		"alphaMode":"OPAQUE",
		"doubleSided":false,
		"name":"Mat"
	}]
}